<?xml version="1.0" standalone="no"?>
<!DOCTYPE svg PUBLIC "-//W3C//DTD SVG 20010904//EN"
 "http://www.w3.org/TR/2001/REC-SVG-20010904/DTD/svg10.dtd">
<svg version="1.0" xmlns="http://www.w3.org/2000/svg"
 width="363.000000pt" height="357.000000pt" viewBox="0 0 363.000000 357.000000"
 preserveAspectRatio="xMidYMid meet">

<g transform="translate(0.000000,357.000000) scale(0.100000,-0.100000)"
fill="#000000" stroke="none">
<path d="M1082 3089 c-18 -5 -30 -14 -27 -18 3 -5 -3 -7 -13 -4 -26 6 -115
-77 -141 -132 -21 -45 -21 -49 -19 -733 3 -681 3 -687 24 -727 12 -22 26 -39
32 -38 5 1 9 -5 8 -14 -1 -22 94 -95 117 -89 9 2 15 0 12 -4 -16 -26 119 -31
795 -28 l695 3 44 23 c34 19 41 26 30 34 -10 7 -8 8 7 3 17 -4 30 4 58 37 20
23 34 48 31 56 -2 7 -1 11 4 8 27 -17 31 75 31 743 0 642 -2 689 -19 726 -24
54 -71 107 -87 101 -8 -3 -13 0 -11 6 1 7 -16 21 -38 32 -39 21 -54 21 -770
23 -441 1 -743 -2 -763 -8z m126 -6 c-16 -2 -40 -2 -55 0 -16 2 -3 4 27 4 30
0 43 -2 28 -4z m979 0 c-174 -2 -460 -2 -635 0 -174 1 -31 2 318 2 349 0 492
-1 317 -2z m356 0 c-7 -2 -19 -2 -25 0 -7 3 -2 5 12 5 14 0 19 -2 13 -5z m22
-13 c-3 -5 -1 -10 6 -10 7 0 10 -3 6 -6 -9 -9 -28 6 -22 17 4 5 8 9 11 9 3 0
2 -4 -1 -10z m-1522 -55 c-3 -9 -8 -14 -10 -11 -3 3 -2 9 2 15 9 16 15 13 8
-4z m82 5 c-3 -5 -12 -10 -18 -10 -7 0 -6 4 3 10 19 12 23 12 15 0z m1422 -7
c-10 -9 43 -34 57 -26 6 3 8 2 3 -2 -8 -10 32 -57 43 -50 4 2 5 -7 2 -20 -4
-25 -6 -25 -102 -25 -169 0 -359 -24 -532 -67 -38 -9 -68 -20 -68 -23 0 -4 11
-33 24 -66 13 -32 27 -85 31 -117 3 -32 10 -57 13 -55 4 2 40 23 80 47 64 38
76 42 97 33 14 -7 25 -15 25 -19 0 -5 -24 -22 -53 -40 -105 -63 -156 -107
-162 -138 -28 -133 -134 -296 -327 -500 -98 -104 -111 -112 -144 -90 -51 33
-279 287 -345 385 -19 27 -37 48 -40 47 -12 -4 -112 -124 -142 -170 -30 -46
-32 -47 -40 -25 -4 12 -7 197 -5 409 3 364 4 388 22 408 11 12 16 24 13 28 -4
3 -2 12 4 20 9 10 8 13 -1 13 -8 0 -11 3 -7 6 3 3 11 3 17 -1 8 -5 7 -11 -2
-23 -9 -11 -5 -10 13 3 15 11 24 24 21 29 -3 5 0 6 7 2 6 -4 19 -2 28 6 13 10
157 14 742 18 399 3 728 6 730 8 2 1 1 -1 -2 -5z m-1562 -12 c3 -5 0 -13 -6
-17 -7 -4 -9 -3 -5 4 3 5 0 13 -6 15 -9 4 -10 6 -1 6 6 1 14 -3 18 -8z m-45
-85 c0 -2 -8 -10 -17 -17 -16 -13 -17 -12 -4 4 13 16 21 21 21 13z m1817 -50
c0 -8 -6 -12 -15 -9 -11 5 -11 7 0 14 7 5 13 9 14 9 0 0 1 -6 1 -14z m-1854
-11 c-3 -9 -8 -14 -10 -11 -3 3 -2 9 2 15 9 16 15 13 8 -4z m1794 -127 c-2
-18 -4 -6 -4 27 0 33 2 48 4 33 2 -15 2 -42 0 -60z m-59 50 c3 -14 -4 -18 -30
-18 -33 0 -58 14 -58 33 0 4 19 7 42 5 31 -2 44 -8 46 -20z m-178 -33 c10 -12
9 -16 -6 -21 -11 -4 -44 -17 -74 -31 -46 -20 -58 -22 -82 -12 -15 6 -28 14
-28 18 0 9 131 60 156 61 12 0 27 -7 34 -15z m237 -70 c0 -8 -4 -12 -9 -9 -5
3 -6 10 -3 15 9 13 12 11 12 -6z m-9 -135 c2 -86 0 -105 -13 -113 -8 -4 -12
-13 -9 -19 5 -7 2 -8 -5 -4 -17 11 -154 -81 -145 -96 5 -7 2 -9 -8 -5 -18 6
-62 -35 -51 -48 5 -4 3 -5 -4 -1 -13 7 -60 -49 -55 -66 1 -5 -2 -7 -7 -4 -8 5
-71 -81 -71 -97 0 -4 8 -4 18 0 9 3 14 3 10 -1 -3 -4 -13 -9 -21 -10 -9 -1
-36 -31 -60 -66 -24 -36 -68 -84 -98 -108 -30 -24 -71 -57 -93 -74 -45 -36
-75 -97 -76 -151 0 -48 21 -177 29 -177 3 0 6 -15 7 -32 0 -18 4 -41 8 -51 8
-16 4 -18 -35 -15 -40 3 -44 5 -51 38 -5 19 -11 100 -15 180 -18 446 150 771
487 940 79 40 219 91 240 87 12 -2 16 -23 18 -107z m-1791 58 c-3 -8 -6 -5 -6
6 -1 11 2 17 5 13 3 -3 4 -12 1 -19z m1498 -438 c3 -5 1 -10 -4 -10 -6 0 -11
5 -11 10 0 6 2 10 4 10 3 0 8 -4 11 -10z m-1438 -177 c-2 -16 -4 -5 -4 22 0
28 2 40 4 28 2 -13 2 -35 0 -50z m1515 -93 l-3 -79 73 -3 73 -3 3 -47 3 -47
-73 -3 -73 -3 0 -76 c0 -70 -2 -75 -19 -71 -13 3 -17 1 -12 -6 4 -8 2 -10 -8
-6 -8 3 -24 1 -35 -5 -17 -9 -19 -9 -15 3 3 8 1 17 -5 21 -6 3 -11 37 -11 76
l0 69 -70 0 -70 0 0 50 0 50 70 0 70 0 0 71 c0 50 -3 68 -12 63 -6 -4 -8 -3
-5 3 3 5 30 10 59 12 29 1 55 4 57 7 2 2 5 4 5 4 1 0 0 -36 -2 -80z m-1515
-222 c-1 -51 -3 -10 -3 92 0 102 2 143 3 93 2 -51 2 -135 0 -185z m1530 175
c-2 -16 -4 -3 -4 27 0 30 2 43 4 28 2 -16 2 -40 0 -55z m-350 -18 c0 -8 -4
-12 -9 -9 -5 3 -6 10 -3 15 9 13 12 11 12 -6z m80 -67 c-2 -13 -4 -5 -4 17 -1
22 1 32 4 23 2 -10 2 -28 0 -40z m-774 2 c-1 -14 -11 -65 -22 -115 -12 -49
-21 -125 -21 -167 l0 -78 -36 0 c-19 0 -33 -4 -29 -9 3 -5 1 -12 -5 -16 -5 -3
-10 1 -10 9 0 19 -38 16 -50 -3 -4 -7 -8 27 -9 77 -2 100 17 196 56 280 l25
53 51 -3 c49 -3 52 -5 50 -28z m1127 -68 c0 -4 -18 -6 -39 -4 l-40 4 -4 -63
-3 -64 -2 68 -2 67 45 0 c25 0 45 -3 45 -8z m37 2 c-3 -3 -12 -4 -19 -1 -8 3
-5 6 6 6 11 1 17 -2 13 -5z m-350 -19 c0 -8 -4 -12 -9 -9 -5 3 -6 10 -3 15 9
13 12 11 12 -6z m-1301 -157 c5 -7 3 -8 -6 -3 -10 6 -12 4 -6 -10 5 -15 4 -16
-9 -5 -13 11 -13 15 -3 21 17 11 16 11 24 -3z m1746 -100 c-7 -7 -12 -8 -12
-2 0 14 12 26 19 19 2 -3 -1 -11 -7 -17z m-1515 -34 c-3 -3 -12 -4 -19 -1 -8
3 -5 6 6 6 11 1 17 -2 13 -5z m40 0 c-3 -3 -12 -4 -19 -1 -8 3 -5 6 6 6 11 1
17 -2 13 -5z m183 -11 c0 -12 -3 -14 -8 -7 -4 7 -18 14 -32 17 -21 4 -20 4 8
6 24 1 32 -3 32 -16z m458 10 c-71 -2 -185 -2 -255 0 -71 1 -13 3 127 3 140 0
198 -2 128 -3z m752 -27 c0 -2 -8 -10 -17 -17 -16 -13 -17 -12 -4 4 13 16 21
21 21 13z m-1067 -43 c-7 -2 -19 -2 -25 0 -7 3 -2 5 12 5 14 0 19 -2 13 -5z
m640 0 c-7 -2 -19 -2 -25 0 -7 3 -2 5 12 5 14 0 19 -2 13 -5z"/>
<path d="M1465 2924 c-164 -40 -285 -185 -293 -353 -7 -129 23 -216 126 -360
52 -74 249 -281 266 -281 15 0 175 172 249 269 32 41 75 109 95 150 36 74 37
79 36 186 0 100 -3 115 -28 167 -59 120 -155 196 -283 223 -81 18 -91 17 -168
-1z m214 -198 c10 -9 28 -37 41 -63 13 -27 34 -56 47 -66 20 -16 23 -27 23
-90 0 -77 -19 -146 -43 -161 -21 -13 -67 9 -74 34 -5 18 -14 20 -113 20 -106
0 -108 0 -114 -25 -7 -26 -43 -42 -71 -32 -27 11 -55 87 -55 153 0 51 4 68 24
91 13 15 33 49 45 75 38 79 61 89 199 83 49 -2 80 -9 91 -19z"/>
<path d="M1474 2693 c-11 -8 -44 -66 -44 -78 0 -3 59 -5 131 -5 l131 0 -25 43
-25 42 -79 3 c-43 1 -83 -1 -89 -5z"/>
<path d="M1397 2543 c-4 -3 -7 -19 -7 -34 0 -22 6 -30 25 -35 27 -7 55 9 55
32 0 29 -54 57 -73 37z"/>
<path d="M1660 2535 c-26 -32 13 -81 48 -59 34 22 22 74 -18 74 -10 0 -23 -7
-30 -15z"/>
<path d="M320 865 l0 -245 45 0 45 0 0 84 0 83 80 6 c125 8 177 50 186 148 6
73 -16 117 -76 147 -38 19 -60 22 -162 22 l-118 0 0 -245z m229 150 c31 -16
45 -51 35 -90 -9 -35 -32 -45 -108 -45 l-66 0 0 75 0 75 55 0 c31 0 69 -7 84
-15z"/>
<path d="M732 1098 c-15 -15 -15 -61 0 -76 37 -37 98 11 79 62 -8 20 -17 26
-39 26 -15 0 -33 -5 -40 -12z"/>
<path d="M1735 1100 c-3 -5 -31 -80 -61 -167 -88 -250 -104 -296 -104 -305 0
-12 83 3 93 16 4 6 12 28 17 49 l11 37 90 0 c99 0 88 7 119 -77 11 -30 16 -33
56 -33 24 0 44 1 44 3 0 3 -39 113 -112 312 -22 61 -45 125 -51 143 -10 29
-14 32 -53 32 -24 0 -46 -4 -49 -10z m105 -272 l9 -28 -65 0 c-35 0 -64 4 -64
10 0 8 25 82 53 154 11 29 11 29 35 -40 13 -38 27 -81 32 -96z"/>
<path d="M2040 865 l0 -245 40 0 40 0 1 73 c1 110 1 306 0 365 l-1 52 -40 0
-40 0 0 -245z"/>
<path d="M2860 1020 c0 -37 -3 -41 -30 -46 -26 -6 -30 -11 -30 -40 0 -31 3
-34 30 -34 l30 0 0 -114 0 -114 31 -26 c22 -19 42 -26 72 -26 53 0 67 10 71
46 3 28 1 29 -43 34 l-46 5 -3 98 -3 97 46 0 c45 0 45 0 45 35 0 35 0 35 -45
35 l-45 0 0 45 0 45 -40 0 -40 0 0 -40z"/>
<path d="M763 972 l-33 -3 0 -170 0 -169 40 0 40 0 0 169 c0 94 -3 171 -7 173
-5 2 -23 2 -40 0z"/>
<path d="M950 958 c-110 -56 -120 -237 -18 -310 67 -47 189 -28 231 36 16 24
16 25 -14 40 -30 15 -33 15 -61 -9 -63 -53 -137 -16 -145 71 -5 58 11 94 49
112 33 16 71 7 100 -23 l21 -22 34 20 34 20 -28 30 c-56 60 -129 72 -203 35z"/>
<path d="M1300 958 c-119 -60 -122 -249 -5 -315 87 -49 198 -16 244 74 6 12
11 51 11 86 0 50 -5 72 -23 98 -27 41 -98 79 -147 79 -20 0 -56 -10 -80 -22z
m148 -84 c33 -37 31 -112 -4 -153 -56 -67 -154 -20 -154 74 0 50 21 92 54 106
32 13 79 2 104 -27z"/>
<path d="M2273 966 c-70 -32 -93 -71 -93 -160 0 -82 20 -125 73 -160 65 -42
180 -31 229 21 23 24 23 25 4 39 -25 18 -41 18 -69 0 -61 -39 -157 -6 -157 54
0 21 4 21 125 18 l125 -3 0 35 c0 45 -37 118 -72 144 -35 25 -122 31 -165 12z
m112 -62 c14 -6 45 -53 45 -69 0 -3 -38 -5 -85 -5 -73 0 -85 2 -85 17 0 29 41
63 76 63 18 0 40 -3 49 -6z"/>
<path d="M2681 965 c-39 -18 -44 -18 -36 -5 4 6 -12 10 -39 10 l-46 0 0 -170
0 -170 45 0 46 0 -3 116 c-3 111 -2 116 21 135 13 10 38 19 57 19 33 0 34 1
34 40 0 35 -3 40 -22 40 -13 -1 -38 -7 -57 -15z"/>
<path d="M3175 962 c6 -4 11 -32 12 -62 2 -30 0 -50 -2 -45 -3 6 -30 8 -60 7
l-55 -4 0 -34 0 -34 50 0 50 0 0 -56 0 -55 38 3 37 3 3 53 3 52 45 0 45 0 -3
36 c-3 36 -4 37 -46 39 -41 2 -82 26 -82 48 0 6 9 0 20 -13 l20 -23 0 46 0 47
-42 0 c-24 0 -38 -4 -33 -8z m50 -92 c10 -11 16 -20 13 -20 -3 0 -13 9 -23 20
-10 11 -16 20 -13 20 3 0 13 -9 23 -20z m-107 -52 c34 6 26 -3 -10 -12 -26 -6
-28 -4 -27 21 1 22 3 23 6 7 3 -17 9 -20 31 -16z m82 -26 c0 -1 -8 2 -19 7
-10 6 -21 7 -25 3 -4 -3 -4 1 -1 10 6 15 8 15 26 0 10 -9 19 -18 19 -20z m75
18 c3 -5 1 -10 -4 -10 -6 0 -11 5 -11 10 0 6 2 10 4 10 3 0 8 -4 11 -10z m-35
-30 c0 -5 -2 -10 -4 -10 -3 0 -8 5 -11 10 -3 6 -1 10 4 10 6 0 11 -4 11 -10z
m-53 -72 c-3 -8 -6 -5 -6 6 -1 11 2 17 5 13 3 -3 4 -12 1 -19z m51 0 c-6 -18
-25 -21 -31 -5 -3 8 3 13 15 14 10 1 18 -3 16 -9z"/>
</g>
</svg>
